<?xml version="1.0" encoding="utf-8"?>
<!-- Generator: Adobe Illustrator 16.0.0, SVG Export Plug-In . SVG Version: 6.00 Build 0)  -->
<!DOCTYPE svg PUBLIC "-//W3C//DTD SVG 1.1//EN" "http://www.w3.org/Graphics/SVG/1.1/DTD/svg11.dtd">
<svg version="1.1" id="Layer_2" xmlns="http://www.w3.org/2000/svg" xmlns:xlink="http://www.w3.org/1999/xlink" x="0px" y="0px"
	 width="500px" height="500px" viewBox="0 0 500 500" enable-background="new 0 0 500 500" xml:space="preserve">
<g>
	<g>
		<path fill="none" d="M292.965,10.624L258.623,183.04c-2.799-0.725-5.678-1.123-8.623-1.123c-2.946,0-5.824,0.398-8.624,1.123
			L207.035,10.624C131.903,37.82,76.333,134.677,76.333,250c0,136.415,77.753,247,173.667,247c95.914,0,173.666-110.585,173.666-247
			C423.666,134.677,368.097,37.82,292.965,10.624z"/>
		<path fill="#131212" d="M250,181.917c2.945,0,5.824,0.398,8.623,1.123l34.342-172.416C279.224,5.65,264.83,3,250,3
			c-14.83,0-29.224,2.65-42.965,7.625l34.341,172.416C244.176,182.315,247.054,181.917,250,181.917z"/>
	</g>
	<g>
		<path fill="none" d="M111.117,50.354l97.633,146.2c-2.491,1.467-4.809,3.221-6.891,5.303c-2.084,2.083-3.838,4.4-5.305,6.892
			L50.355,111.116c-33.895,72.357-4.701,180.14,76.844,261.685c96.461,96.46,229.635,119.676,297.458,51.854
			c67.82-67.82,44.605-200.995-51.855-297.455C291.256,45.654,183.474,16.459,111.117,50.354z"/>
		<path fill="#131212" d="M201.859,201.857c2.082-2.083,4.399-3.836,6.891-5.303l-97.633-146.2
			c-13.234,6.2-25.285,14.503-35.771,24.99s-18.791,22.538-24.99,35.772l146.199,97.633
			C198.021,206.258,199.775,203.94,201.859,201.857z"/>
	</g>
	<g>
		<path fill="none" d="M10.625,207.034l172.416,34.342c-0.725,2.799-1.123,5.678-1.123,8.623c-0.001,2.947,0.397,5.826,1.122,8.625
			L10.625,292.964C37.821,368.096,134.678,423.666,250,423.666c136.417,0,247-77.753,247-173.668
			c0-95.912-110.584-173.666-247-173.665C134.678,76.333,37.821,131.902,10.625,207.034z"/>
		<path fill="#131212" d="M181.917,249.999c0-2.945,0.398-5.824,1.123-8.623L10.625,207.034C5.65,220.776,3,235.168,3,249.999
			C3,264.828,5.65,279.223,10.625,292.964l172.415-34.341C182.315,255.824,181.917,252.945,181.917,249.999z"/>
	</g>
	<g>
		<path fill="none" d="M50.355,388.883l146.199-97.634c1.467,2.491,3.221,4.809,5.304,6.892c2.083,2.084,4.399,3.838,6.892,5.305
			l-97.633,146.198c72.357,33.896,180.139,4.701,261.684-76.843c96.461-96.461,119.676-229.636,51.854-297.458
			c-67.82-67.82-200.995-44.605-297.456,51.856C45.654,208.743,16.458,316.524,50.355,388.883z"/>
		<path fill="#131212" d="M201.858,298.141c-2.083-2.083-3.837-4.4-5.304-6.892L50.355,388.883
			c6.199,13.234,14.502,25.284,24.989,35.771c10.485,10.486,22.538,18.791,35.772,24.989l97.633-146.198
			C206.257,301.979,203.941,300.225,201.858,298.141z"/>
	</g>
	<g>
		<path fill="none" d="M207.035,489.375l34.342-172.416c2.798,0.725,5.677,1.123,8.623,1.123c2.946,0,5.825-0.397,8.624-1.123
			l34.342,172.416C368.098,462.178,423.666,365.32,423.666,250c0.002-136.417-77.752-247-173.668-247
			c-95.912,0-173.664,110.584-173.664,247C76.333,365.32,131.902,462.178,207.035,489.375z"/>
		<path fill="#131212" d="M250,318.082c-2.946,0-5.825-0.398-8.623-1.123l-34.342,172.416c13.742,4.975,28.133,7.624,42.965,7.624
			c14.829,0.001,29.225-2.649,42.965-7.624l-34.342-172.416C255.824,317.685,252.945,318.082,250,318.082z"/>
	</g>
	<g>
		<path fill="none" d="M388.883,449.645l-97.633-146.2c2.49-1.466,4.809-3.22,6.891-5.304c2.084-2.082,3.838-4.398,5.305-6.891
			l146.199,97.633c33.896-72.359,4.699-180.14-76.844-261.684C276.342,30.736,143.166,7.522,75.342,75.345
			C7.523,143.165,30.738,276.339,127.199,372.8C208.742,454.345,316.525,483.54,388.883,449.645z"/>
		<path fill="#131212" d="M298.141,298.141c-2.082,2.084-4.4,3.838-6.891,5.304l97.633,146.2
			c13.234-6.199,25.285-14.502,35.771-24.99c10.486-10.484,18.793-22.539,24.99-35.771L303.445,291.25
			C301.979,293.742,300.225,296.059,298.141,298.141z"/>
	</g>
	<g>
		<path fill="none" d="M489.375,292.965l-172.416-34.342c0.725-2.798,1.125-5.678,1.123-8.624c0.002-2.946-0.396-5.824-1.121-8.624
			l172.414-34.341C462.178,131.9,365.32,76.333,250,76.333C113.583,76.33,3,154.085,3,250.002c0,95.91,110.584,173.664,247,173.664
			C365.32,423.668,462.18,368.097,489.375,292.965z"/>
		<path fill="#131212" d="M318.082,250c0.002,2.946-0.398,5.826-1.123,8.624l172.416,34.342c4.975-13.742,7.625-28.134,7.623-42.965
			c0.002-14.829-2.648-29.226-7.623-42.965l-172.414,34.341C317.686,244.175,318.084,247.054,318.082,250z"/>
	</g>
	<g>
		<path fill="none" d="M449.645,111.117L303.445,208.75c-1.467-2.49-3.219-4.81-5.305-6.892c-2.08-2.084-4.398-3.838-6.889-5.305
			l97.631-146.198c-72.359-33.896-180.139-4.699-261.684,76.844C30.736,223.657,7.523,356.833,75.346,424.656
			c67.818,67.818,200.994,44.604,297.455-51.855C454.346,291.258,483.541,183.473,449.645,111.117z"/>
		<path fill="#131212" d="M298.141,201.858c2.086,2.082,3.838,4.401,5.305,6.892l146.199-97.633
			c-6.199-13.235-14.502-25.285-24.99-35.771c-10.484-10.487-22.539-18.793-35.771-24.991l-97.631,146.198
			C293.742,198.02,296.061,199.773,298.141,201.858z"/>
	</g>
	<circle cx="250" cy="250" r="41"/>
</g>
</svg>
