<?xml version="1.0" encoding="utf-8"?>
<!-- Generator: Adobe Illustrator 16.0.0, SVG Export Plug-In . SVG Version: 6.00 Build 0)  -->
<!DOCTYPE svg PUBLIC "-//W3C//DTD SVG 1.1//EN" "http://www.w3.org/Graphics/SVG/1.1/DTD/svg11.dtd">
<svg version="1.1" id="Layer_1" xmlns="http://www.w3.org/2000/svg" xmlns:xlink="http://www.w3.org/1999/xlink" x="0px" y="0px"
	 width="500px" height="500px" viewBox="0 0 500 500" enable-background="new 0 0 500 500" xml:space="preserve">
<path d="M246.5,24.484c6.5,0,13.001,0,19.501,0c2.047,0.356,4.116,0.617,6.139,1.084c10.092,2.331,20.229,4.255,30.662,3.931
	c0.565-0.018,1.16,0.069,1.701,0.237c6.742,2.096,13.567,3.967,20.183,6.408c5.393,1.99,10.844,4.156,15.714,7.148
	c10.137,6.227,18.345,14.847,26.79,23.125c5.269,5.165,7.955,11.692,9.805,18.641c1.127,4.235,1.482,8.798,3.286,12.705
	c3.832,8.298,10.653,13.417,19.37,16.27c8.664,2.835,13.561,9.278,14.737,18.096c0.771,5.781,4.065,9.453,8.4,12.335
	c4.951,3.291,10.433,5.778,15.424,9.014c4.579,2.968,9.424,5.905,13.062,9.858c6.421,6.973,12.188,14.576,17.897,22.165
	c4.604,6.121,9.044,12.415,12.964,18.986c4.417,7.407,5.157,16.051,6.874,24.329c0.703,3.388,1.34,6.789,2.007,10.184
	c0,4.833,0,9.667,0,14.5c-0.162,0.253-0.445,0.494-0.47,0.76c-0.871,9.542-4.244,18.169-9.261,26.272
	c-6.799,10.983-15.838,20.116-24.319,29.701c-5.934,6.706-7.949,14.519-6.805,23.091c0.455,3.406,0.217,6.541-1.519,9.164
	c-3.016,4.557-6.551,8.773-9.95,13.068c-5.809,7.339-8.721,15.771-9.691,24.98c-0.481,4.565-0.791,9.171-1.646,13.671
	c-1.991,10.494-5.894,20.302-11.248,29.551c-2.946,5.091-6.313,9.852-10.847,13.624c-5.603,4.663-11.298,9.223-17.082,13.658
	c-4.528,3.475-8.902,7.42-13.969,9.863c-8.777,4.235-18.049,7.442-27.091,11.134c-5.52,2.254-11.172,3.167-17.03,1.767
	c-7.591-1.813-14.74-4.684-21.108-9.297c-3.762-2.725-7.521-5.453-10.937-7.93c3.835-0.19,7.854-0.222,11.836-0.625
	c7.457-0.757,14.732-2.77,22.407-2.065c5.406,0.496,10.976,0.206,16.369-0.512c3.854-0.513,7.854-1.765,11.216-3.69
	c3.861-2.211,7.063-5.562,10.599-8.36c7.883-6.242,15.863-12.36,22.756-19.753c5.549-5.951,9.607-12.834,12.739-20.26
	c2.446-5.801,4.266-11.824,4.562-18.184c0.22-4.714,0.717-9.465,0.338-14.139c-0.241-2.969-1.542-5.987-2.923-8.701
	c-3.387-6.658-8.852-11.681-14.182-16.726c-6.104-5.777-13.468-8.824-21.9-9.039c-4.447-0.113-7.74,3.388-7.879,7.879
	c-0.175,5.649-1.843,10.928-4.621,15.817c-0.569,1.003-1.751,1.698-2.735,2.42c-4.951,3.625-15.831-0.647-18.645-5.102
	c-2.966-4.696-4.678-9.846-5.918-15.173c-0.743-3.194,0.564-5.953,3.461-7.613c4.206-2.41,8.729-3.533,13.631-3.285
	c3.082,0.157,6.252-3.232,6.375-6.246c0.196-4.84-1.733-8.94-4.335-12.781c-2.546-3.759-5.766-6.964-10.342-7.836
	c-4.009-0.765-8.182-1.153-12.246-0.961c-2.537,0.121-5.294,1.196-7.436,2.62c-2.721,1.81-4.8,4.553-7.379,6.613
	c-2.002,1.598-4.257,2.952-6.562,4.082c-3.062,1.501-6.115,3.286-6.593,6.753c-0.664,4.815,0.035,9.671,2.058,14.213
	c2.846,6.39,7.762,11.15,12.484,16.104c1.949,2.045,3.706,4.431,4.952,6.955c2.406,4.876,0.948,11.832-2.939,13.881
	c-5.82,3.067-12.096,3.316-18.196,1.058c-4.947-1.83-6.202-6.422-6.446-11.144c-0.302-5.835-0.812-11.574-2.96-17.094
	c-2.537-6.519-5.22-13.01-7.207-19.701c-1.126-3.788-2.577-7.033-5.652-9.493c-0.702-0.562-1.451-1.068-2.132-1.654
	c-2.621-2.252-5.413-1.826-7.088,1.22c-1.381,2.51-2.734,5.051-3.845,7.685c-0.648,1.535-1.322,3.365-1.077,4.919
	c1.055,6.679,2.586,13.281,3.674,19.956c1.08,6.617,2.388,13.271,2.565,19.937c0.15,5.593-1.019,11.251-1.899,16.833
	c-1.111,7.051-0.189,14,0.772,20.924c0.944,6.793,3.916,12.748,7.766,18.493c6.604,9.854,12.615,20.106,18.744,29.982
	c-2.208,0.243-5.079-0.086-7.341,0.934c-6.164,2.779-12.151,5.984-18.057,9.293c-6.46,3.619-12.707,4.928-19.825,1.364
	c-10.384-5.199-21.104-4.605-31.59,0.004c-5.596,2.459-10.968,5.428-16.559,7.9c-2.463,1.088-5.221,1.512-7.845,2.236
	c-14.834,0-29.668,0-44.503,0c-2.068-0.855-4.307-1.438-6.175-2.612c-10.839-6.811-21.767-13.502-32.312-20.747
	c-7.929-5.449-15.942-10.899-22.405-18.234c-3.734-4.239-6.609-8.977-8.56-14.205c-2.361-6.326-2.964-12.835-2.77-19.706
	c0.245-8.672-1.263-17.381-1.682-26.09c-0.208-4.338-1.991-7.903-5.258-10.1c-5.88-3.953-8.826-9.446-10.342-16.019
	c-1.382-5.99-2.903-11.805-7.666-16.309c-4.819-4.558-9.367-9.417-13.844-14.318c-2.866-3.139-5.851-6.323-7.968-9.961
	c-4.713-8.102-9.305-16.322-13.179-24.845c-2.358-5.188-3.371-11.005-4.822-16.582c-0.706-2.711-1.031-5.522-1.528-8.287
	c0-7.501,0-15.001,0-22.502c0.334-2.636,0.49-5.31,1.039-7.901c1.043-4.926,1.779-10.015,3.61-14.655
	c2.747-6.962,6.026-13.763,9.658-20.311c2.357-4.25,5.476-8.174,8.757-11.787c2.736-3.014,6.142-5.442,9.362-7.991
	c5.505-4.357,10.682-9.292,17.342-11.869c6.204-2.402,12.58-4.363,18.894-6.475c4.036-1.35,6.32-4.247,7.309-8.233
	c0.626-2.527,0.821-5.177,1.601-7.648c2.2-6.976,5.425-13.364,12.845-16.047c5.104-1.846,10.482-2.922,15.636-4.646
	c3.443-1.152,6.904-2.511,10.005-4.365c4.437-2.652,4.858-7.493,5.448-12.073c0.867-6.729,3.09-12.985,6.555-18.798
	c4.602-7.721,10.511-14.329,17.485-19.958c5.795-4.677,11.666-9.265,17.604-13.76c7.726-5.849,16.751-8.985,25.808-12.011
	c4.929-1.646,9.926-3.106,14.791-4.924c8.726-3.262,17.578-5.956,26.862-7.074C242.572,25.233,244.531,24.818,246.5,24.484z
	 M231.458,48.48c-0.008-0.072-0.016-0.144-0.024-0.215c-2.125,0.237-4.247,0.527-6.376,0.703
	c-9.335,0.773-18.001,3.766-26.293,7.949c-4.212,2.125-8.313,4.471-12.52,6.609c-2.015,1.024-4.399,1.464-6.186,2.762
	c-2.552,1.854-4.719,4.241-7.033,6.421c-3.258,3.071-6.532,6.126-9.738,9.25c-3.46,3.373-5.819,7.391-7.383,12.001
	c-1.277,3.769-2.748,7.557-4.748,10.976c-3.407,5.824-4.448,12.149-2.571,18.246c2.67,8.674,6.417,17.034,9.982,25.41
	c2.327,5.466,6.671,9.127,12.176,11.251c2.872,1.108,5.877,1.901,8.863,2.681c6.665,1.74,8.813,0.75,11.816-5.317
	c0.649-1.312,1.135-2.703,1.728-4.044c1.084-2.453,1.728-5.278,3.373-7.274c5.89-7.144,13.189-7.679,21.157-3.345
	c5.848,3.181,6.993,9.188,7.841,15.201c0.465,3.296,0.548,6.855,1.912,9.778c3.896,8.35,8.068,16.604,12.731,24.544
	c2.073,3.53,5.233,6.606,10.331,6.004c3.229-0.381,5.081-2.431,7.133-4.439c4.62-4.523,5.487-10.362,4.024-16.022
	c-2.125-8.218-6.701-15.417-12.51-21.622c-3.375-3.606-6.415-7.097-6.88-12.342c-0.351-3.959,0.269-7.497,2.871-10.489
	c2.75-3.162,6.576-4.522,10.494-5.456c7.196-1.714,13.729-0.498,18.917,5.144c2.552,2.776,4.695,5.938,7.332,8.621
	c1.074,1.092,3.046,2.062,4.476,1.901c4.185-0.471,8.388-1.246,12.425-2.44c6.713-1.986,12.734-0.747,17.883,3.648
	c2.653,2.264,4.18,5.605,3.359,9.399c-0.514,2.374-1.218,4.706-1.806,7.064c-1.326,5.315,2.322,9.028,5.907,9.412
	c7.026,0.754,13.109-1.587,18.124-6.479c6.718-6.553,11.276-14.605,15.463-22.893c6.264-12.399,6.927-25.292,4.067-38.727
	c-1.982-9.313-6.676-17.075-12.189-24.523c-4.468-6.033-9.01-12.177-15.996-15.387c-5.643-2.593-10.837-5.847-16.185-8.905
	c-2.654-1.519-5.592-2.78-8.562-3.452c-3.975-0.899-8.094-1.208-12.168-1.603c-7.529-0.73-15.061-1.679-22.608-1.892
	c-6.338-0.179-12.7,0.586-19.054,0.881C247.163,47.835,239.31,48.146,231.458,48.48z M32.712,249.221
	c-0.153,0.011-0.305,0.022-0.458,0.034c0.242,3.128,0.229,6.301,0.777,9.374c1.201,6.728,2.107,13.592,4.189,20.061
	c3.28,10.193,7.867,19.958,14.445,28.468c4.006,5.182,8.922,9.584,15.426,11.951c9.917,3.611,20.006,2.962,29.974,1.235
	c11.939-2.069,22.881-7.063,32.887-13.893c3.312-2.261,6.683-4.92,5.521-9.836c-0.446-1.887-0.971-3.785-1.732-5.562
	c-1.953-4.551-3.628-9.139-3.243-14.207c0.344-4.521,2.567-8.694,7.526-10.416c8.823-3.063,17.621-0.741,26.416-0.159
	c4.897,0.324,9.761,1.143,14.641,1.73c3.905,0.471,7.799,1.078,11.718,1.358c5,0.357,10.241,0.928,14.433-2.541
	c3.341-2.766,6.379-5.965,9.201-9.271c3.408-3.992,3.461-8.697,1.589-13.396c-2.409-6.049-4.913-12.063-7.522-18.029
	c-2.563-5.863-5.587-11.494-9.923-16.272c-5.405-5.955-12.088-9.483-20.066-10.924c-7.521-1.358-14.61-4.062-20.635-8.977
	c-2.743-2.238-5.188-4.865-8.042-6.939c-6.382-4.641-13.816-6.915-21.42-8.457c-5.759-1.167-11.635-1.76-17.459-2.603
	c-5.926-0.857-11.933-1.125-17.681,0.521c-9.137,2.617-18.099,5.836-27.174,8.678c-7.334,2.297-12.66,7.222-17.125,13.116
	c-3.145,4.15-5.634,8.789-8.657,13.038c-6.973,9.8-8.033,21.072-8.283,32.533C31.966,242.959,32.47,246.093,32.712,249.221z
	 M243.723,335.873c-0.242-2.957-0.305-5.943-0.784-8.861c-0.365-2.225-1.232-4.371-1.921-6.538
	c-1.959-6.159-7.703-8.628-12.172-3.074c-1.491,1.853-3.134,3.598-4.491,5.543c-4.556,6.532-7.672,13.63-6.779,21.783
	c0.412,3.767,1.521,7.487,2.622,11.137c0.941,3.123-0.602,7.981-3.051,9.906c-3.172,2.491-6.78,3.674-10.557,4.145
	c-4.126,0.514-8.462,0.125-11.464-3.141c-4.867-5.293-6.635-12.995-1.882-19.767c2.908-4.142,5.979-8.171,8.824-12.354
	c5.357-7.879,9.922-16.021,8.984-26.134c-0.364-3.917-3.689-7.486-7.677-7.517c-5.286-0.04-10.299,1.377-14.687,4.084
	c-3.599,2.222-6.632,5.289-7.702,9.832c-1.153,4.895-2.569,9.734-4.036,14.548c-2.388,7.834-12.651,12.849-20.447,9.872
	c-5.107-1.949-9.16-5.258-12.544-9.261c-3.58-4.236-11.547-4.718-15.752-1.589c-4.973,3.7-10.376,6.862-15.111,10.831
	c-4.915,4.12-9.11,9.074-11.074,15.396c-2.933,9.439-3.787,19.259-4.422,29.03c-0.492,7.553-0.35,15.158,1.329,22.685
	c2.312,10.368,6.724,19.546,14.027,27.305c6.625,7.039,14.471,12.241,23.382,15.948c7.14,2.97,14.442,5.079,22.229,5.37
	c2.692,0.101,5.364,0.655,8.052,0.923c2.292,0.228,4.599,0.517,6.89,0.45c1.907-0.056,3.789-0.751,5.701-0.88
	c6.175-0.414,12.404-0.348,18.528-1.128c6.363-0.81,12.347-2.972,17.194-7.553c2.904-2.745,6.021-5.264,8.933-8
	c3.124-2.934,6.499-5.711,9.09-9.075c5.113-6.643,6.772-14.612,6.982-22.8c0.164-6.373-0.187-12.766-0.459-19.144
	c-0.208-4.854-0.375-9.738-1.06-14.538c-0.845-5.917-0.236-11.578,1.533-17.219C242.011,349.519,244.12,342.94,243.723,335.873z
	 M465.017,244.367c-0.166,0-0.333-0.001-0.5-0.001c0-7.466,0.149-14.937-0.082-22.395c-0.079-2.532-0.81-5.164-1.797-7.517
	c-1.255-2.991-3.234-5.671-4.612-8.621c-2.031-4.35-3.722-8.858-5.71-13.231c-4.189-9.212-11.033-16.263-18.629-22.715
	c-8.123-6.901-17.418-10.527-28.106-10.376c-2.553,0.036-5.113,0.213-7.648,0.509c-2.503,0.292-5.087,0.503-7.442,1.311
	c-4.382,1.501-8.604,3.458-12.93,5.129c-2.647,1.023-5.573,1.495-8.011,2.862c-7.228,4.051-11.807,10.328-14.614,18.105
	c-2.134,5.912-5.543,10.889-11.916,13.071c-6.669,2.284-11.403,6.829-15.046,12.747c-4.062,6.598-8.556,12.943-12.359,19.682
	c-2.987,5.292-7.629,9.912-7.485,16.7c0.041,1.907-0.648,4.056,1.422,5.042c1.307,0.623,3.276,0.875,4.542,0.338
	c2.209-0.938,4.197-2.495,6.114-4.002c4.446-3.495,8.603-7.392,13.231-10.616c6.48-4.514,12.513-9.408,16.611-16.247
	c2.683-4.477,4.952-9.2,7.503-13.759c1.803-3.222,3.74-6.391,7.938-6.888c5.569-0.659,10.25,1.607,14.223,5.059
	c8.009,6.957,4.083,19.155-3.439,23.476c-4.022,2.31-8.16,4.419-12.203,6.693c-5.746,3.23-11.304,6.838-17.227,9.692
	c-4.204,2.025-8.888,3.051-13.342,4.566c-3.336,1.134-4.116,4.244-1.593,6.623c1.544,1.457,3.177,2.903,4.994,3.972
	c5.979,3.518,12.455,4.943,19.037,2.317c2.834-1.131,5.53-3.365,7.493-5.753c3.483-4.235,7.832-6.836,12.808-8.686
	c5.227-1.943,10.286-2.348,15.164,1.144c4.629,3.313,5.896,8.592,2.537,13.131c-3.41,4.61-7.083,9.041-10.852,13.365
	c-2.592,2.973-2.98,5.216-0.7,8.567c0.87,1.278,1.818,2.509,2.794,3.711c3.105,3.82,6.049,7.801,9.424,11.368
	c2.909,3.075,6.398,5.268,11.092,4.826c3.403-0.321,6.862-0.093,10.296-0.057c7.104,0.073,13.726-1.895,20.089-4.828
	c6.754-3.114,11.61-8.595,16.732-13.729c8.091-8.11,12.248-17.847,12.203-29.341C465,254.532,465.017,249.45,465.017,244.367z
	 M157.923,298.191c0.208,0.082,0.416,0.164,0.624,0.245c-0.629,3.513,1.349,5.85,4.145,6.796c3.623,1.228,7.549,1.56,11.347,2.26
	c0.231,0.042,0.522,0,0.73-0.108c3.677-1.909,7.827-3.072,10.568-6.48c3.387-4.213,6.939-8.315,10.014-12.748
	c2.138-3.081,3.403-8.591-1.391-11.838c-1.434-0.971-3.387-1.419-5.155-1.606c-4.2-0.444-8.678-0.485-11.966,2.371
	c-5.721,4.968-11.069,10.383-16.352,15.826C159.192,294.242,158.754,296.407,157.923,298.191z M204.548,171.493
	c-5.89,0-11.108,7.618-9.402,12.924c2.16,6.713,5.402,12.748,11.129,17.007c3.44,2.559,6.501,5.986,11.563,5.641
	c4.577-0.312,8.304-5.487,6.251-9.663c-3.492-7.103-7.24-14.084-11.025-21.038C211.193,172.927,208.281,170.986,204.548,171.493z
	 M272.122,178.54c-0.423,5.799,1.542,10.412,5.59,14.563c2.55,2.614,6.314,2.255,8.768,0.599c7.75-5.231,8.724-11.558,6.699-20.297
	c-0.932-4.021-3.93-6.607-6.767-9.211c-5.354-4.913-11.303-2.83-12.829,3.143C272.657,170.959,272.58,174.797,272.122,178.54z
	 M354.558,276c-5.338,0-7.165,0.837-11.608,5.319c-1.647,1.661-2.18,4.804-0.78,6.498c3.228,3.909,7.863,6.274,13.776,4.779
	c4.489-1.136,7.271-4.398,10.083-7.55c1.078-1.208,1.055-3.223-0.43-4.704C362.539,277.291,358.922,275.708,354.558,276z
	 M305.502,199.034c0,1.345,0.139,2.367-0.028,3.336c-0.349,2.021,0.526,3.907,2.139,4.26c1.899,0.416,4.132-0.12,6.071-0.725
	c0.807-0.251,1.631-1.702,1.74-2.686c0.254-2.3,0.418-4.716-0.036-6.953c-0.308-1.513-1.482-3.631-2.706-3.99
	c-1.736-0.508-4.115-0.118-5.783,0.738C304.279,194.358,305.982,197.23,305.502,199.034z"/>
</svg>
