<?xml version="1.0" encoding="utf-8"?>
<!-- Generator: Adobe Illustrator 16.0.0, SVG Export Plug-In . SVG Version: 6.00 Build 0)  -->
<!DOCTYPE svg PUBLIC "-//W3C//DTD SVG 1.1//EN" "http://www.w3.org/Graphics/SVG/1.1/DTD/svg11.dtd">
<svg version="1.1" id="Layer_1" xmlns="http://www.w3.org/2000/svg" xmlns:xlink="http://www.w3.org/1999/xlink" x="0px" y="0px"
	 width="500px" height="500px" viewBox="0 0 500 500" enable-background="new 0 0 500 500" xml:space="preserve">
<path fill-rule="evenodd" clip-rule="evenodd" d="M218.887,340.609c-17.118-1.452-30.727-4.997-44.086-10.942
	c-18.91-8.414-31.415-23.337-42.399-39.586c-4.303-6.368-5.807-14.994-7.268-22.836c-3.016-16.196,0.878-31.5,9.089-45.458
	c2.521-4.287,6.993-7.959,11.386-10.505c9.918-5.747,20.473-10.384,30.527-15.911c8.654-4.758,17.729-7.321,27.525-8.55
	c21.303-2.673,40.492-11.204,57.502-24.029c12.51-9.431,24.08-20.104,36.164-30.11c3.418-2.83,7.08-5.389,10.779-7.854
	c16.014-10.671,28.688-3.016,35.324,12.454c1.615,3.757,2.236,8.339,1.953,12.448c-1.889,27.135-7.041,53.747-14.598,79.83
	c-5.295,18.267-12.559,35.768-23.479,51.579c-3.201,4.639-5.674,9.789-8.363,14.767c-7.979,14.771-19.297,25.64-35.314,31.52
	c-6.043,2.217-11.424,6.501-17.56,8.136C236.373,338.147,226.291,339.297,218.887,340.609z M234.452,308.616
	c17.048,0.221,26.373-12.182,36.498-22.545c4.83-4.945,8.207-11.512,11.453-17.756c4.92-9.464,10.355-18.92,13.416-29.034
	c6.008-19.852,10.682-40.117,15.512-60.306c0.738-3.083,0.592-8.139-1.293-9.717c-3.76-3.148-7.205,0.74-10.492,3.129
	c-6.615,4.809-13.398,9.388-20.191,13.947c-2.336,1.568-4.938,2.737-7.354,4.192c-11.18,6.729-20.752,16.299-33.896,19.542
	c-7.632,1.883-15.594,2.664-23.013,5.129c-13.562,4.509-27.033,9.436-40.175,15.045c-16.165,6.897-18.008,18.732-15.491,32.959
	c2.562,14.489,10.853,26.05,22.217,35.072c4.283,3.401,9.643,6.661,14.878,7.407C209.047,307.475,221.793,307.735,234.452,308.616z"
	/>
</svg>
